<svg width="71" height="49" viewBox="0 0 71 49" fill="none" xmlns="http://www.w3.org/2000/svg">
<path d="M3.0675 36.488C2.38483 36.488 1.80883 36.1253 1.3395 35.4C0.998167 34.8027 0.8275 34.0987 0.8275 33.288C0.8275 32.136 1.0835 30.8347 1.5955 29.384C2.1075 27.9333 2.79017 26.5253 3.6435 25.16C4.5395 23.7947 5.52083 22.6427 6.5875 21.704C7.69683 20.7227 8.8275 20.1467 9.9795 19.976C10.4062 19.9333 10.9182 20.04 11.5155 20.296C12.1128 20.552 12.6035 20.872 12.9875 21.256C13.0728 20.8293 13.1368 20.424 13.1795 20.04C13.2222 19.6133 13.2435 19.208 13.2435 18.824C13.2435 17.6293 13.0515 16.5627 12.6675 15.624C12.2835 14.6853 11.6008 14.0667 10.6195 13.768C10.2355 13.64 9.80883 13.576 9.3395 13.576C9.0835 13.576 8.80617 13.6187 8.5075 13.704C8.20883 13.7467 7.88883 13.8747 7.5475 14.088C7.20617 14.2587 6.86483 14.536 6.5235 14.92C6.18217 15.2613 5.9475 15.5813 5.8195 15.88C5.73417 16.0507 5.52083 16.4347 5.1795 17.032C4.83817 17.5867 4.56083 17.8427 4.3475 17.8C4.17683 17.7573 4.0915 17.608 4.0915 17.352C4.0915 17.224 4.13417 17.032 4.2195 16.776C4.4755 15.9653 4.96617 15.2827 5.6915 14.728C6.41683 14.1307 7.20617 13.6613 8.0595 13.32C8.91283 12.936 9.61683 12.7227 10.1715 12.68C10.2995 12.68 10.4275 12.68 10.5555 12.68C10.6835 12.6373 10.7902 12.616 10.8755 12.616C11.5582 12.616 12.1768 12.7227 12.7315 12.936C13.3288 13.1067 13.7982 13.3413 14.1395 13.64C14.6942 14.0667 15.1422 14.6213 15.4835 15.304C15.8248 15.944 15.9955 16.7547 15.9955 17.736C15.9955 18.0347 15.9742 18.3547 15.9315 18.696C15.8888 19.0373 15.8248 19.3787 15.7395 19.72C15.6115 20.4027 15.4408 21.2773 15.2275 22.344C15.0568 23.368 14.8648 24.4347 14.6515 25.544C14.4808 26.6533 14.3315 27.6773 14.2035 28.616C14.1182 29.512 14.0755 30.152 14.0755 30.536C14.0755 30.9627 14.2035 31.4533 14.4595 32.008C14.7582 32.52 15.1422 32.776 15.6115 32.776C15.8675 32.776 16.1448 32.648 16.4435 32.392C16.7848 32.136 17.1262 31.7093 17.4675 31.112C17.6808 30.7707 17.8728 30.6 18.0435 30.6C18.2568 30.6 18.3635 30.728 18.3635 30.984C18.3635 31.3253 18.1928 31.7307 17.8515 32.2C17.0408 33.352 16.0168 33.928 14.7795 33.928C13.7555 33.928 13.0302 33.5013 12.6035 32.648C11.8782 31.24 11.5155 29.9813 11.5155 28.872C11.5155 27.72 11.4942 26.9307 11.4515 26.504C11.2382 27.016 10.8328 27.8267 10.2355 28.936C9.63817 30.0027 8.93417 31.1333 8.1235 32.328C7.31283 33.48 6.4595 34.4613 5.5635 35.272C4.6675 36.0827 3.8355 36.488 3.0675 36.488ZM4.0915 34.568C4.51817 34.568 5.00883 34.3547 5.5635 33.928C6.16083 33.5013 6.7795 32.84 7.4195 31.944C8.27283 30.7067 9.06217 29.32 9.7875 27.784C10.5128 26.248 11.1742 24.7547 11.7715 23.304C11.2595 22.0667 10.6195 21.448 9.8515 21.448C9.16883 21.448 8.4435 21.8107 7.6755 22.536C6.9075 23.2613 6.18217 24.0933 5.4995 25.032C4.64617 26.312 3.9635 27.592 3.4515 28.872C2.98217 30.152 2.7475 31.24 2.7475 32.136C2.7475 33.7573 3.1955 34.568 4.0915 34.568ZM34.4305 48.2C33.4918 48.2 32.7665 47.7947 32.2545 46.984C31.7852 46.1733 31.5505 45.2347 31.5505 44.168C31.5505 42.888 31.7852 41.416 32.2545 39.752C32.7238 38.1307 33.3212 36.4667 34.0465 34.76C34.7718 33.0107 35.5185 31.3253 36.2865 29.704C37.0972 28.0827 37.8012 26.632 38.3985 25.352C39.0385 24.072 39.4652 23.0907 39.6785 22.408C39.9345 21.64 40.0625 21.064 40.0625 20.68C40.0625 20.2533 39.9132 20.04 39.6145 20.04C39.2732 20.04 38.7612 20.3173 38.0785 20.872C37.4385 21.384 36.8198 21.96 36.2225 22.6C35.6252 23.24 35.1985 23.7093 34.9425 24.008C33.5345 25.544 32.2972 27.2507 31.2305 29.128C30.1638 31.0053 29.4812 32.6053 29.1825 33.928C29.1398 34.1413 29.0758 34.5253 28.9905 35.08C28.9052 35.592 28.7132 35.848 28.4145 35.848C28.1158 35.848 27.8812 35.6987 27.7105 35.4C27.5825 35.1013 27.4972 34.7813 27.4545 34.44C27.4118 34.2267 27.3692 33.8213 27.3265 33.224C27.3265 32.584 27.3265 32.1147 27.3265 31.816C27.3265 29.9813 27.5185 28.1467 27.9025 26.312C28.2865 24.4347 28.7132 22.6427 29.1825 20.936C29.6945 19.1867 30.1425 17.5867 30.5265 16.136C30.9105 14.6853 31.1025 13.448 31.1025 12.424C31.1025 11.7413 30.9745 11.1867 30.7185 10.76C30.5052 10.2907 30.2278 10.056 29.8865 10.056C29.3745 10.056 28.7772 10.4827 28.0945 11.336C27.4545 12.1893 26.7932 13.3413 26.1105 14.792C25.4278 16.2427 24.7878 17.8427 24.1905 19.592C23.6358 21.3413 23.1665 23.112 22.7825 24.904C22.4412 26.696 22.2705 28.3813 22.2705 29.96C22.2705 30.856 22.3345 31.7733 22.4625 32.712C22.6332 33.6507 22.7185 34.4827 22.7185 35.208C22.7185 35.7627 22.6332 36.168 22.4625 36.424C22.3345 36.68 21.9932 36.808 21.4385 36.808C20.4145 36.808 19.7745 35.8053 19.5185 33.8C19.2198 32.0507 18.8998 30.0667 18.5585 27.848C18.2598 25.6293 17.8758 23.6667 17.4065 21.96C17.2785 21.4907 17.1292 21 16.9585 20.488C16.7878 19.976 16.4678 19.5067 15.9985 19.08C15.9558 18.9947 15.8492 18.9093 15.6785 18.824C15.5078 18.7387 15.4225 18.6533 15.4225 18.568C15.4225 18.3973 15.6572 18.312 16.1265 18.312C16.7665 18.312 17.3638 18.6747 17.9185 19.4C18.4732 20.0827 18.9638 20.936 19.3905 21.96C19.8172 22.984 20.1798 24.008 20.4785 25.032C20.8198 26.0133 21.0758 26.8027 21.2465 27.4C21.6305 25.0533 22.0572 22.92 22.5265 21C22.9958 19.0373 23.5932 17.1387 24.3185 15.304C24.8305 14.0667 25.4278 12.872 26.1105 11.72C26.7932 10.568 27.5612 9.62933 28.4145 8.904C29.2678 8.136 30.1638 7.752 31.1025 7.752C31.6998 7.752 32.4038 8.072 33.2145 8.712C34.0678 9.352 34.4945 10.376 34.4945 11.784C34.4945 12.424 34.3238 13.192 33.9825 14.088C33.6838 14.9413 33.3425 15.9013 32.9585 16.968C32.4038 18.4613 31.8065 20.1467 31.1665 22.024C30.5265 23.8587 29.9718 25.544 29.5025 27.08C29.0332 28.616 28.7558 29.6827 28.6705 30.28C28.5852 30.9627 28.5212 31.5387 28.4785 32.008C28.4785 32.4347 28.4785 32.84 28.4785 33.224C28.7345 32.1147 29.2892 30.8347 30.1425 29.384C31.0385 27.8907 31.8492 26.632 32.5745 25.608C33.3852 24.456 34.2385 23.368 35.1345 22.344C36.0732 21.2773 37.0332 20.424 38.0145 19.784C39.0385 19.1013 40.0412 18.76 41.0225 18.76C41.4918 18.76 41.8972 18.888 42.2385 19.144C42.5798 19.4 42.7505 19.8907 42.7505 20.616C42.7505 21.5973 42.4305 22.728 41.7905 24.008C41.1932 25.2453 40.4465 26.5253 39.5505 27.848C38.6972 29.128 37.9078 30.3867 37.1825 31.624C36.2438 33.2453 35.3692 34.9947 34.5585 36.872C33.7905 38.7067 33.4065 40.6053 33.4065 42.568C33.4065 44.1893 33.5985 45.3627 33.9825 46.088C34.4092 46.8133 34.8572 47.176 35.3265 47.176C35.6252 47.176 35.9238 47.0693 36.2225 46.856C36.5638 46.6427 36.8412 46.4507 37.0545 46.28C37.1398 46.1947 37.2678 46.0667 37.4385 45.896C37.6092 45.768 37.7585 45.704 37.8865 45.704C38.0572 45.704 38.0785 45.8747 37.9505 46.216C37.9078 46.3867 37.7798 46.5573 37.5665 46.728C37.3532 46.9413 37.2038 47.0907 37.1185 47.176C36.3078 47.8587 35.4118 48.2 34.4305 48.2ZM49.509 15.624C49.125 15.624 48.8477 15.432 48.677 15.048C48.549 14.6213 48.485 14.3227 48.485 14.152C48.485 13.4693 48.677 12.8293 49.061 12.232C49.4877 11.592 49.957 11.2507 50.469 11.208H50.661C51.173 11.208 51.5143 11.336 51.685 11.592C51.8983 11.8053 52.005 12.0827 52.005 12.424C52.005 13.064 51.7277 13.768 51.173 14.536C50.6183 15.2613 50.0637 15.624 49.509 15.624ZM46.245 38.536C44.7943 38.536 43.813 37.9813 43.301 36.872C42.789 35.7627 42.533 34.4827 42.533 33.032C42.533 31.5813 42.6823 30.0667 42.981 28.488C43.3223 26.8667 43.685 25.3947 44.069 24.072C44.4957 22.7493 44.8157 21.8107 45.029 21.256C45.4983 20.2747 45.9677 19.4427 46.437 18.76C46.9063 18.0347 47.4183 17.672 47.973 17.672C48.357 17.672 48.6343 17.8213 48.805 18.12C49.0183 18.376 49.125 18.7173 49.125 19.144C49.125 19.9973 48.8903 20.872 48.421 21.768C47.9517 22.6213 47.525 23.432 47.141 24.2C46.2877 25.9493 45.605 27.5067 45.093 28.872C44.6237 30.2373 44.389 31.944 44.389 33.992C44.389 35.3147 44.517 36.2747 44.773 36.872C45.0717 37.4693 45.477 37.768 45.989 37.768C46.6717 37.768 47.461 37.384 48.357 36.616C49.253 35.8053 50.1703 34.7387 51.109 33.416C52.0477 32.0933 52.8797 30.664 53.605 29.128C54.0743 28.1467 54.437 27.656 54.693 27.656C54.8637 27.656 54.949 27.8267 54.949 28.168C54.949 28.6373 54.757 29.32 54.373 30.216C54.0317 31.0693 53.605 31.944 53.093 32.84C52.6237 33.736 52.1757 34.44 51.749 34.952C51.0237 35.8907 50.1917 36.7227 49.253 37.448C48.3143 38.1733 47.3117 38.536 46.245 38.536ZM58.857 47.24C58.4303 47.24 57.9823 46.9627 57.513 46.408C57.0863 45.896 56.681 45.1707 56.297 44.232C55.657 42.696 55.209 41.0747 54.953 39.368C54.697 37.704 54.569 36.0187 54.569 34.312C54.569 32.4347 54.697 30.6 54.953 28.808C55.209 27.016 55.4863 25.3947 55.785 23.944C55.9983 22.92 56.2543 21.832 56.553 20.68C56.8517 19.528 57.129 18.6107 57.385 17.928C57.129 17.9707 56.7237 18.12 56.169 18.376C55.6143 18.632 55.0383 18.888 54.441 19.144C53.8863 19.4 53.3957 19.528 52.969 19.528C52.329 19.528 52.009 19.1653 52.009 18.44C52.009 18.056 52.137 17.7147 52.393 17.416C52.6917 17.1173 53.0543 16.8827 53.481 16.712C54.3343 16.328 55.273 16.0507 56.297 15.88C57.321 15.6667 58.0037 15.4533 58.345 15.24L60.009 11.016C60.1797 10.5893 60.4783 9.90667 60.905 8.968C61.3743 7.98667 61.9077 6.94133 62.505 5.832C63.145 4.72267 63.7637 3.72 64.361 2.824C64.8303 2.14133 65.2783 1.608 65.705 1.224C66.1317 0.797333 66.601 0.584 67.113 0.584C67.881 0.584 68.265 0.882666 68.265 1.48C68.265 1.82133 68.1157 2.33333 67.817 3.016C67.561 3.69866 67.0703 4.59466 66.345 5.704C65.5343 6.984 64.7023 8.264 63.849 9.544C63.0383 10.7813 62.3343 12.0827 61.737 13.448C61.6943 13.6187 61.5877 13.896 61.417 14.28C61.289 14.6213 61.1823 14.8347 61.097 14.92L62.377 14.728C62.7183 14.6853 63.1023 14.664 63.529 14.664C63.9557 14.6213 64.425 14.6 64.937 14.6C65.6623 14.6 66.345 14.6427 66.985 14.728C67.6677 14.7707 68.2223 14.8773 68.649 15.048C68.8623 15.1333 69.0543 15.24 69.225 15.368C69.4383 15.4533 69.545 15.5387 69.545 15.624C69.545 15.7947 68.9903 15.88 67.881 15.88C67.241 15.88 66.3237 15.9867 65.129 16.2C63.977 16.4133 62.6543 16.7547 61.161 17.224C60.4357 17.4373 59.945 17.736 59.689 18.12C59.433 18.504 59.0917 19.4213 58.665 20.872C58.025 23.176 57.513 25.3947 57.129 27.528C56.745 29.6187 56.4463 31.752 56.233 33.928C56.1903 34.3547 56.1477 34.8027 56.105 35.272C56.105 35.7413 56.105 36.2533 56.105 36.808C56.105 38.2587 56.233 39.7733 56.489 41.352C56.7877 42.9307 57.2143 44.296 57.769 45.448C57.897 45.704 58.025 45.9387 58.153 46.152C58.3237 46.3653 58.5157 46.5147 58.729 46.6C59.0277 46.728 59.177 46.8773 59.177 47.048C59.177 47.176 59.0703 47.24 58.857 47.24ZM66.599 37.896C66.3003 38.024 65.959 37.8533 65.575 37.384C65.2337 36.9147 65.063 36.4453 65.063 35.976C65.063 35.5493 65.2337 35.1867 65.575 34.888C65.9163 34.5893 66.1297 34.4187 66.215 34.376C66.3857 34.1627 66.7697 33.8853 67.367 33.544C68.007 33.16 68.6043 32.84 69.159 32.584C69.7563 32.328 70.0763 32.2853 70.119 32.456C70.2043 32.6267 70.1403 32.776 69.927 32.904C69.7563 32.9893 69.5217 33.2453 69.223 33.672C68.9243 34.056 68.6257 34.7813 68.327 35.848C68.199 36.232 68.0283 36.616 67.815 37C67.6017 37.3413 67.1963 37.64 66.599 37.896Z" fill="black"/>
</svg>
